PathFileType	4	(X/Y/Z)	C:/Users/beibeiliu/ov580/test_trc/User3\out5_training_dense_left.trc
DataRate	CameraRate	NumFrames	NumMarkers	Units	OrigDataRate	OrigDataStartFrame	OrigNumFrames
120	120	12	19	mm	120	376	500
Frame#	Time	ThumbCMC			ThumbMCP			ThumbIP			ThumbTip			IndexMCP			IndexPIP			IndexTip			MiddleMCP			MiddlePIP			MiddleTip			RingMCP			RingPIP			RingTip			PinkyMCP			PinkyPIP			PinkyTip			BackHand1			BackHand2			BackHand3	
		X0	Y0	Z0	X1	Y1	Z1	X2	Y2	Z2	X3	Y3	Z3	X4	Y4	Z4	X5	Y5	Z5	X6	Y6	Z6	X7	Y7	Z7	X8	Y8	Z8	X9	Y9	Z9	X10	Y10	Z10	X11	Y11	Z11	X12	Y12	Z12	X13	Y13	Z13	X14	Y14	Z14	X15	Y15	Z15	X16	Y16	Z16	X17	Y17	Z17	X18	Y18	Z18	
375	3.125	-132.325	83.7538	35.6536	-127.098	116.96	20.3412	-141.679	135.574	-2.79067	-169.011	120.934	-15.9469	-152.82	152.323	5.38954	-135.472	152.976	-23.4391	-123.647	119.752	-16.3841	-166.533	148.485	-7.38761	-146.343	139.882	-35.8255	-140.688	104.351	-22.0988	-178.08	135.038	-14.6826	-158.993	125.398	-38.9212	-154.395	93.076	-20.7052	-189.325	119.47	-24.8362	-170.818	109.127	-39.5936	-162.741	83.227	-24.8347	-194.28	104.526	27.9703	-191.673	72.6809	39.8311	-164.621	93.448	49.4693	
376	3.13333	-129.488	89.4502	37.6994	-124.412	121.885	19.2808	-144.949	130.821	-2.98023	-164.448	115.687	-15.8513	-148.644	157.216	3.17177	-125.491	154.464	-20.8188	-117.669	126.225	-11.7476	-161.673	150.854	-9.74082	-135.847	143.512	-31.861	-131.353	107.857	-15.5631	-169.482	136.906	-21.7235	-152.313	123.929	-40.8184	-139.763	98.9003	-24.0229	-177.68	122.138	-24.8558	-160.071	110.1	-40.5757	-151.239	85.1241	-21.6272	-190.292	100.341	27.5273	-185.48	76.4597	38.4607	-161.803	101.578	47.6272	
377	3.14167	-121.715	95.3117	39.1944	-121.617	122.919	13.7949	-142.031	123.848	-10.2468	-160.051	107.591	-20.3245	-144.23	160.239	2.6962	-120.933	157.795	-18.571	-115.103	128.993	-5.6765	-156.655	154.172	-14.6186	-132.864	146.758	-32.7592	-130.549	114.413	-7.40388	-160.2	136.136	-22.563	-141.372	124.407	-40.0736	-129.184	99.2786	-22.0342	-170.339	118.191	-25.9577	-150.221	107.184	-41.9202	-142.159	84.2397	-22.8134	-182.433	101.42	23.9543	-181.571	74.7801	33.5406	-159.928	102.864	47.7134	
378	3.15	-120.508	103.727	38.277	-120.262	128.112	11.7277	-137.627	127.339	-16.3809	-155.602	106.286	-23.8761	-147.732	158.291	-7.29083	-119.733	154.885	-24.4805	-117.671	129.094	-5.04438	-158.001	147.132	-21.4126	-131.628	137.285	-37.9363	-127.207	115.482	-7.51501	-161.929	127.985	-27.2363	-136.334	118.812	-44.5179	-124.83	96.4316	-18.2782	-164.77	112.343	-33.3186	-142.021	99.2711	-42.6057	-133.43	82.524	-21.3043	-180.82	97.4445	17.784	-178.313	75.0258	33.3504	-157.001	104.806	46.9331	
379	3.15833	-118.801	109.131	38.7165	-121.535	136.556	17.1984	-136.355	138.289	-9.02131	-150.512	125.23	-32.7776	-152.465	150.649	-14.8804	-127.156	148.055	-35.5028	-121.764	131.133	-5.02273	-158.017	142.041	-30.529	-133.481	132.974	-46.4874	-124.162	110.471	-14.9715	-158.386	124.411	-35.7194	-136.649	111.687	-47.8406	-123.975	96.0667	-22.0298	-161.21	104.597	-37.6522	-137.88	94.5745	-44.4356	-131.72	76.4199	-21.3	-178.95	91.088	12.4837	-171.474	72.1765	31.7202	-154.069	107.072	40.9605	
380	3.16667	-127.845	112.628	31.493	-133.301	139.856	14.8695	-144.124	155.815	-8.00358	-154.931	147.055	-32.1571	-155.974	146.207	-29.2229	-128.03	137.124	-39.6174	-128.678	125.814	-8.43392	-164.249	128.015	-38.2585	-134.162	122.613	-52.9172	-128.37	104.002	-14.0171	-161.474	110.029	-43.7425	-130.986	103.163	-49.5848	-125.573	92.7895	-18.3959	-160.883	90.6056	-45.4154	-135.593	88.1507	-46.9069	-128.521	76.612	-19.288	-181.352	86.3905	4.69531	-166.79	70.296	28.0147	-161.344	104.493	30.0354	
381	3.175	-137.595	111.763	27.089	-145.277	136.794	8.76447	-156.416	154.607	-14.4067	-161.759	155.132	-38.5993	-165.45	134.908	-38.7487	-136.716	137.828	-45.1676	-139.28	118.424	-13.4162	-166.623	117.122	-49.5747	-135.323	116.418	-54.0433	-132.093	101.141	-17.7716	-163.772	96.9176	-50.0548	-132.135	98.1796	-51.7816	-125.352	88.9575	-21.0106	-160.478	79.9063	-48.1878	-131.701	81.9872	-48.5643	-127.365	79.0758	-20.1882	-182.132	74.2323	-0.293076	-166.667	59.3898	25.2877	-167.4	95.5499	26.7278	
382	3.18333	-140.793	112.276	28.5857	-150.643	129.527	5.8089	-158.942	148.808	-15.5107	-167.355	155.782	-39.5368	-173.837	129.105	-37.209	-141.408	132.3	-46.2508	-142.239	119.024	-15.4578	-169.853	113.969	-50.5166	-137.345	116.623	-53.5367	-135.443	97.5284	-17.1776	-162.941	94.4043	-53.9858	-134.079	95.0378	-53.2554	-127.6	86.0549	-19.347	-157.214	74.4334	-54.5394	-133.925	81.9779	-50.0026	-124.929	73.3647	-19.5917	-181.797	70.8576	-2.6762	-166.198	55.1794	21.2954	-172.304	87.4379	23.8266	
383	3.19167	-145.905	105.574	25.898	-149.888	129.011	8.58927	-162.527	142.313	-15.5912	-170.481	152.247	-38.8104	-177.872	129.284	-36.4308	-148.523	131.559	-46.8821	-146.083	117.82	-14.2764	-173.911	105.699	-47.3788	-142.295	110.926	-54.4207	-136.403	98.4175	-13.9223	-165.336	92.7934	-49.2879	-135.601	95.5513	-50.4088	-130.273	87.8249	-18.4179	-159.453	72.1487	-51.1679	-133.032	81.2568	-45.8152	-128.566	71.3298	-16.7427	-181.477	66.0978	-0.381731	-168.21	47.6303	23.7772	-172.199	88.5235	27.9236	
384	3.2	-140.316	106.041	32.9995	-152.007	126.035	9.53383	-161.185	145.515	-8.94277	-169.995	150.412	-32.3581	-178.94	124.882	-34.6761	-151.581	131.377	-44.9928	-146.861	112.962	-14.9805	-175.915	107.926	-41.8954	-144.288	110.315	-50.7943	-138.666	95.1087	-12.6709	-168.768	89.3263	-45.8575	-137.943	90.2986	-50.3033	-131.866	79.9753	-16.4869	-164.204	69.0127	-45.2918	-135.88	79.2452	-45.1492	-127.733	71.8422	-15.4771	-182.842	61.9571	1.4338	-168.733	46.1446	25.1637	-174.03	85.1973	28.2858	
385	3.20833	-141.398	101.464	31.7723	-152.937	124.411	12.97	-161.17	141.163	-5.47924	-172.177	150.735	-28.3221	-183.456	119.131	-25.8554	-156.694	132.123	-41.0285	-148.882	115.225	-10.0782	-178.405	108.127	-37.8405	-146.763	108.665	-46.7142	-140.327	93.3235	-11.56	-172.251	85.1755	-41.1926	-142.569	92.013	-46.9322	-133.773	80.2804	-11.8625	-167.527	66.2539	-42.4618	-142.031	76.3359	-46.524	-129.747	70.3717	-16.626	-183.108	58.5727	8.33932	-163.72	46.7045	33.316	-169.703	81.9138	33.0907	
386	3.21667	-139.207	98.6377	35.9278	-152.09	122.533	14.6401	-163.308	141.101	-2.74983	-175.014	147.734	-25.0592	-187.817	119.957	-24.2496	-160.924	125.512	-39.9516	-148.624	117.414	-10.2008	-182.643	103.487	-35.8117	-152.631	109.854	-46.027	-142.177	92.4039	-9.87722	-175.543	85.6863	-38.3568	-147.424	90.1205	-44.5523	-134.317	79.4401	-14.9228	-170.941	67.0581	-36.1075	-140.949	74.4796	-40.2696	-133.043	67.5241	-15.4972	-183.162	57.4133	11.0959	-163.668	44.6681	36.1032	-171.336	80.6115	37.9485	
